<svg width="32" height="32" viewBox="0 0 32 32" fill="none" xmlns="http://www.w3.org/2000/svg">
  <rect width="32" height="32" rx="8" fill="#007AFF"/>
  <path d="M8 24V8h6c1.33 0 2.5.47 3.5 1.41S19 11.33 19 12.67c0 .66-.17 1.27-.5 1.83-.33.56-.77 1-.33 1.33.56.33 1 .77 1.33 1.33.33.56.5 1.17.5 1.83 0 1.34-.5 2.5-1.5 3.41S16.33 24 15 24H8zm3-6.5h3c.41 0 .77-.15 1.06-.44.29-.29.44-.65.44-1.06s-.15-.77-.44-1.06C14.77 14.65 14.41 14.5 14 14.5h-3v3zm0 3.5h4c.41 0 .77-.15 1.06-.44.29-.29.44-.65.44-1.06s-.15-.77-.44-1.06C15.77 18.65 15.41 18.5 15 18.5h-4V21z" fill="white"/>
</svg>
